<?xml version="1.0" encoding="UTF-8" standalone="no"?>
<svg
   xmlns:dc="http://purl.org/dc/elements/1.1/"
   xmlns:cc="http://creativecommons.org/ns#"
   xmlns:rdf="http://www.w3.org/1999/02/22-rdf-syntax-ns#"
   xmlns:svg="http://www.w3.org/2000/svg"
   xmlns="http://www.w3.org/2000/svg"
   xmlns:sodipodi="http://sodipodi.sourceforge.net/DTD/sodipodi-0.dtd"
   xmlns:inkscape="http://www.inkscape.org/namespaces/inkscape"
   viewBox="0 0 22 22"
   version="1.1"
   id="svg6"
   sodipodi:docname="edit-users.svg"
   inkscape:version="0.92.4 5da689c313, 2019-01-14">
  <metadata
     id="metadata10">
    <rdf:RDF>
      <cc:Work
         rdf:about="">
        <dc:format>image/svg+xml</dc:format>
        <dc:type
           rdf:resource="http://purl.org/dc/dcmitype/StillImage" />
        <dc:title></dc:title>
      </cc:Work>
    </rdf:RDF>
  </metadata>
  <sodipodi:namedview
     pagecolor="#ffffff"
     bordercolor="#666666"
     borderopacity="1"
     objecttolerance="10"
     gridtolerance="10"
     guidetolerance="10"
     inkscape:pageopacity="0"
     inkscape:pageshadow="2"
     inkscape:window-width="1920"
     inkscape:window-height="1013"
     id="namedview8"
     showgrid="false"
     inkscape:zoom="30.341309"
     inkscape:cx="7.9436727"
     inkscape:cy="12.503375"
     inkscape:window-x="0"
     inkscape:window-y="36"
     inkscape:window-maximized="1"
     inkscape:current-layer="svg6" />
  <defs
     id="defs3051">
    <style
       type="text/css"
       id="current-color-scheme">
      .ColorScheme-Text {
        color:#232629;
      }
      </style>
    <style
       id="current-color-scheme-3"
       type="text/css">
      .ColorScheme-Text {
        color:#232629;
      }
      </style>
  </defs>
  <path
     style="fill:currentColor;fill-opacity:1;stroke:none"
     d="M 14 3 C 12.338 3 11 4.338 11 6 C 11 7.662 12.338 9 14 9 C 15.662 9 17 7.662 17 6 C 17 4.338 15.662 3 14 3 z M 8 6 C 6.338 6 5 7.338 5 9 C 5 10.662 6.338 12 8 12 C 9.662 12 11 10.662 11 9 C 11 7.338 9.662 6 8 6 z M 14 10 C 13.353654 10 12.744006 10.134157 12.181641 10.361328 L 12.636719 11.275391 C 13.064535 11.114885 13.514485 11 14 11 C 16.21602 11 18 12.78398 18 15 L 14.5 15 L 15 16 L 19 16 L 19 15 C 19 12.22998 16.77002 10 14 10 z M 8 13 C 5.229983 13 3 15.229983 3 18 L 3 19 L 13 19 L 13 18 C 13 15.229983 10.770017 13 8 13 z M 8 14 C 10.216017 14 12 15.783983 12 18 L 4 18 C 4 15.783983 5.783983 14 8 14 z "
     class="ColorScheme-Text"
     id="path4" />
  <g
     id="g872"
     transform="matrix(1.2,0,0,1.2,1.6127108,1.5572558)">
    <path
       sodipodi:nodetypes="cccccccccccccc"
       inkscape:connector-curvature="0"
       id="path4-6"
       class="ColorScheme-Text"
       d="M 13.997042,4.9999999 5.0029002,13.994142 h -0.0029 V 17 H 5.7500011 7.2500007 8.0058578 V 16.9971 L 17,8.0029574 16.9986,8.0014974 17,8.0000374 13.999999,5.0000371 l -0.0014,0.00146 -0.0014,-0.00146"
       style="color:#232629;fill:#ffffff;fill-opacity:1;stroke:none;stroke-width:0.75000012" />
    <path
       inkscape:connector-curvature="0"
       id="path4-5"
       class="ColorScheme-Text"
       d="M 13.497558,5.9999992 6.002441,13.495117 h -0.0024 v 2.504881 h 0.625 1.25 0.629881 v -0.0024 l 7.495117,-7.4951178 -0.0012,-0.00122 0.0012,-0.00122 -2.5,-2.5 -0.0012,0.00122 -0.0012,-0.00122 M 12.248778,8.1325661 13.86743,9.7512186 9.124998,14.49365 v -0.993652 h -0.625 -0.625 v -0.625 -0.368652 l 4.37378,-4.3737799 m -4.99878,4.9987799 v 0.993652 h 0.625 0.625 v 0.625 0.368652 L 8.243651,15.374998 H 7.249998 l -0.625,-0.625 v -0.993652 l 0.625,-0.625"
       style="color:#232629;fill:currentColor;fill-opacity:1;stroke:none;stroke-width:0.625" />
  </g>
</svg>
