<?xml version="1.0" encoding="UTF-8" standalone="no"?>
<svg
   xmlns:dc="http://purl.org/dc/elements/1.1/"
   xmlns:cc="http://creativecommons.org/ns#"
   xmlns:rdf="http://www.w3.org/1999/02/22-rdf-syntax-ns#"
   xmlns:svg="http://www.w3.org/2000/svg"
   xmlns="http://www.w3.org/2000/svg"
   xmlns:sodipodi="http://sodipodi.sourceforge.net/DTD/sodipodi-0.dtd"
   xmlns:inkscape="http://www.inkscape.org/namespaces/inkscape"
   viewBox="0 0 22 22"
   version="1.1"
   id="svg6"
   sodipodi:docname="edit-bank.svg"
   inkscape:version="0.92.4 5da689c313, 2019-01-14">
  <metadata
     id="metadata10">
    <rdf:RDF>
      <cc:Work
         rdf:about="">
        <dc:format>image/svg+xml</dc:format>
        <dc:type
           rdf:resource="http://purl.org/dc/dcmitype/StillImage" />
        <dc:title></dc:title>
      </cc:Work>
    </rdf:RDF>
  </metadata>
  <sodipodi:namedview
     pagecolor="#ffffff"
     bordercolor="#666666"
     borderopacity="1"
     objecttolerance="10"
     gridtolerance="10"
     guidetolerance="10"
     inkscape:pageopacity="0"
     inkscape:pageshadow="2"
     inkscape:window-width="1920"
     inkscape:window-height="1013"
     id="namedview8"
     showgrid="false"
     inkscape:zoom="30.341309"
     inkscape:cx="11.069935"
     inkscape:cy="11.302016"
     inkscape:window-x="0"
     inkscape:window-y="36"
     inkscape:window-maximized="1"
     inkscape:current-layer="svg6" />
  <defs
     id="defs3051">
    <style
       type="text/css"
       id="current-color-scheme">
      .ColorScheme-Text {
        color:#232629;
      }
      </style>
    <style
       id="current-color-scheme-3"
       type="text/css">
      .ColorScheme-Text {
        color:#232629;
      }
      </style>
  </defs>
  <path
     style="fill:currentColor;fill-opacity:1;stroke:none"
     d="M 11 3 L 3 7.6230469 L 3 7.9980469 L 3 9 L 4 9 L 4 10 L 4 18 L 3 18 L 3 19 L 19 19 L 19 18 L 18 18 L 18 10 L 18 9 L 19 9 L 19 7.9980469 L 19 7.6230469 L 11 3 z M 11 4.15625 L 17.650391 7.9980469 L 4.3496094 7.9980469 L 11 4.15625 z M 5 9 L 7 9 L 7 10 L 7 18 L 5 18 L 5 10 L 5 9 z M 8 9 L 14 9 L 14 10 L 14 18 L 13 18 L 13 14 L 9 14 L 9 18 L 8 18 L 8 10 L 8 9 z M 15 9 L 17 9 L 17 10 L 17 18 L 15 18 L 15 10 L 15 9 z "
     class="ColorScheme-Text"
     id="path4" />
  <g
     id="g872"
     transform="matrix(1.2,0,0,1.2,1.5467943,1.5797526)">
    <path
       sodipodi:nodetypes="cccccccccccccc"
       inkscape:connector-curvature="0"
       id="path4-6"
       class="ColorScheme-Text"
       d="M 13.997042,4.9999999 5.0029002,13.994142 h -0.0029 V 17 H 5.7500011 7.2500007 8.0058578 V 16.9971 L 17,8.0029574 16.9986,8.0014974 17,8.0000374 13.999999,5.0000371 l -0.0014,0.00146 -0.0014,-0.00146"
       style="color:#232629;fill:#ffffff;fill-opacity:1;stroke:none;stroke-width:0.75000012" />
    <path
       inkscape:connector-curvature="0"
       id="path4-5"
       class="ColorScheme-Text"
       d="M 13.497558,5.9999992 6.002441,13.495117 h -0.0024 v 2.504881 h 0.625 1.25 0.629881 v -0.0024 l 7.495117,-7.4951178 -0.0012,-0.00122 0.0012,-0.00122 -2.5,-2.5 -0.0012,0.00122 -0.0012,-0.00122 M 12.248778,8.1325661 13.86743,9.7512186 9.124998,14.49365 v -0.993652 h -0.625 -0.625 v -0.625 -0.368652 l 4.37378,-4.3737799 m -4.99878,4.9987799 v 0.993652 h 0.625 0.625 v 0.625 0.368652 L 8.243651,15.374998 H 7.249998 l -0.625,-0.625 v -0.993652 l 0.625,-0.625"
       style="color:#232629;fill:currentColor;fill-opacity:1;stroke:none;stroke-width:0.625" />
  </g>
</svg>
