<?xml version="1.0" encoding="UTF-8" standalone="no"?>
<svg
   xmlns:dc="http://purl.org/dc/elements/1.1/"
   xmlns:cc="http://creativecommons.org/ns#"
   xmlns:rdf="http://www.w3.org/1999/02/22-rdf-syntax-ns#"
   xmlns:svg="http://www.w3.org/2000/svg"
   xmlns="http://www.w3.org/2000/svg"
   xmlns:sodipodi="http://sodipodi.sourceforge.net/DTD/sodipodi-0.dtd"
   xmlns:inkscape="http://www.inkscape.org/namespaces/inkscape"
   version="1.0"
   width="700.000000pt"
   height="700.000000pt"
   viewBox="0 0 700.000000 700.000000"
   preserveAspectRatio="xMidYMid meet"
   id="svg14"
   sodipodi:docname="Logo-riquadro.svg"
   inkscape:version="0.92.1 r"
   inkscape:export-filename="/Build/SportelloDipendenteSanCarlo/ui/Logo-splash.svg.png"
   inkscape:export-xdpi="52.66"
   inkscape:export-ydpi="52.66">
  <defs
     id="defs18" />
  <sodipodi:namedview
     pagecolor="#ffffff"
     bordercolor="#666666"
     borderopacity="1"
     objecttolerance="10"
     gridtolerance="10"
     guidetolerance="10"
     inkscape:pageopacity="0"
     inkscape:pageshadow="2"
     inkscape:window-width="1366"
     inkscape:window-height="703"
     id="namedview16"
     showgrid="false"
     inkscape:zoom="0.50571429"
     inkscape:cx="440.44562"
     inkscape:cy="440.60973"
     inkscape:window-x="0"
     inkscape:window-y="30"
     inkscape:window-maximized="1"
     inkscape:current-layer="g12" />
  <metadata
     id="metadata2">
Created by potrace 1.13, written by Peter Selinger 2001-2015
<rdf:RDF>
  <cc:Work
     rdf:about="">
    <dc:format>image/svg+xml</dc:format>
    <dc:type
       rdf:resource="http://purl.org/dc/dcmitype/StillImage" />
    <dc:title></dc:title>
  </cc:Work>
</rdf:RDF>
</metadata>
  <g
     transform="translate(0.000000,700.000000) scale(0.100000,-0.100000)"
     fill="#000000"
     stroke="none"
     id="g12">
    <rect
       style="opacity:1;fill:#ffffff;fill-opacity:1;stroke:#0075b5;stroke-width:146.26644897;stroke-miterlimit:4;stroke-dasharray:none;stroke-opacity:1"
       id="rect4492"
       width="6825.7651"
       height="6825.7651"
       x="102.11627"
       y="-6897.8833"
       transform="scale(1,-1)"
       ry="477.22528" />
    <path
       d="m 3279.6201,6603.3535 c -233.4958,-38.916 -454.9461,-133.4262 -620.8023,-265.9258 -215.8909,-172.3421 -355.803,-391.9393 -406.7644,-640.2602 -8.3391,-38.9159 -14.8251,-84.3179 -14.8251,-100.0696 v -27.7971 h -296.5026 -296.5025 v -331.7122 -330.7857 l -84.3179,-83.3913 C 1206.8819,4475.0211 1009.5224,4068.2566 978.01896,3624.4294 940.95614,3101.8436 1139.2422,2600.569 1542.3004,2200.2906 l 101.9228,-100.9962 v -316.8871 -317.8137 h 290.9431 c 321.52,0 302.062,3.7063 302.062,-60.2271 0,-16.6783 6.486,-63.0068 14.8251,-102.8493 44.4754,-219.5972 183.461,-447.53363 365.0688,-600.41771 270.5586,-227.93634 623.5819,-339.1248 992.357,-310.40111 621.7288,46.32852 1097.986,465.13839 1161.9193,1020.15412 l 5.5595,53.7411 h 291.8697 290.9431 v 317.8137 316.8871 l 79.6851,78.7585 c 273.3382,270.5585 463.2852,593.9316 542.0437,925.6439 62.0802,257.5866 59.3005,569.8408 -5.5594,820.9414 -86.1711,331.7123 -281.6775,657.8651 -541.1172,906.1859 l -75.0522,71.346 v 333.5653 333.5654 l -293.7228,1.8532 -293.7229,2.7797 -11.1188,75.0522 c -21.3112,151.031 -72.2725,280.7508 -166.7827,423.4427 -171.4156,257.5866 -454.9461,441.9741 -794.9975,517.9529 -109.3353,24.0908 -407.691,31.5034 -519.806,12.972 z m 486.4495,-88.9508 c 128.7933,-25.944 215.8909,-56.5208 334.4919,-116.7479 340.978,-174.1952 563.3549,-483.6698 590.2254,-823.7211 l 6.486,-83.3914 294.6494,-2.7797 293.7229,-1.8531 v -312.2543 -311.3277 l 100.0696,-98.2164 c 275.1914,-271.4852 449.3867,-572.6206 524.4389,-909.8922 110.2618,-496.6418 -14.8252,-998.843 -355.8031,-1430.6249 -32.43,-40.7691 -105.629,-121.3807 -164.003,-177.9015 L 5285.6452,2140.99 v -296.5025 -296.5026 h -295.576 -294.6494 l -5.5595,-104.7024 C 4678.7415,1211.6399 4585.1579,1013.3538 4397.0641,824.33337 4218.236,644.57869 4016.2436,538.94966 3751.2444,485.20857 c -125.087,-25.01741 -392.8658,-22.23769 -519.806,4.63285 -236.2755,50.96138 -442.9007,157.51698 -603.1974,311.32765 -103.7759,99.1431 -159.3701,175.1219 -219.5972,297.42923 -62.0802,125.087 -87.0976,220.5237 -94.5102,349.317 l -5.5594,100.0696 h -294.6494 -295.576 v 296.5026 295.576 l -89.8773,86.171 c -479.037,462.3587 -673.61681,1066.4827 -531.8515,1657.6346 75.9788,321.52 273.3383,650.4525 537.4109,899.7 l 84.3179,79.685 v 311.3277 311.3277 h 294.6494 295.576 l 5.5594,86.171 c 9.2657,128.7933 43.5488,245.5412 109.3353,367.8485 170.489,317.8137 519.8061,542.0437 921.9377,593.0051 102.8493,12.972 311.3277,3.7063 420.663,-18.5314 z"
       id="path4"
       style="fill:#0075b5;fill-opacity:1;stroke-width:3.75000008;stroke-miterlimit:4;stroke-dasharray:none"
       inkscape:connector-curvature="0" />
    <path
       d="m 3386.1757,6292.0258 c -506.8341,-51.888 -903.4062,-404.9113 -974.7522,-868.1965 l -11.1188,-67.6397 H 2142.7181 1885.1315 V 5052.2745 4748.3594 L 1819.345,4684.426 C 1603.4541,4471.3148 1436.6714,4184.078 1361.6192,3896.8411 1218.0008,3342.752 1392.196,2741.4077 1819.345,2321.6713 l 65.7865,-63.9334 v -290.0165 -290.0166 h 258.5132 257.5866 l 5.5594,-62.0802 c 19.458,-208.4784 122.3073,-417.8833 283.5305,-578.18 164.003,-163.07643 340.978,-255.73343 589.2989,-310.40114 92.657,-19.45798 322.4465,-22.23769 421.5895,-4.63285 421.5896,75.05216 757.9347,360.43599 866.3434,737.55009 12.972,45.402 25.944,113.0416 29.6503,150.1045 l 5.5594,67.6396 h 252.9538 253.8803 v 284.4571 283.5306 l 81.5382,84.3179 c 569.8408,590.2254 658.7916,1399.1214 226.0832,2062.5459 -67.6397,104.7025 -172.3421,233.4958 -255.7335,315.034 l -51.8879,50.0348 v 299.2822 299.2823 H 4856.643 4602.7627 l -11.1188,76.9054 c -62.0803,411.3973 -405.8379,750.522 -850.5917,839.4728 -107.4822,21.3111 -258.5132,29.6503 -354.8765,19.458 z m 229.7895,-74.1256 c 264.0725,-28.7237 529.9983,-160.2967 684.7355,-340.0514 134.3528,-154.7373 209.405,-328.006 223.3035,-512.3935 l 6.486,-78.7585 252.9538,-2.7797 252.0271,-1.8531 v -279.8243 -279.8243 l 67.6397,-64.8599 C 5464.4733,4308.2384 5649.7874,3843.1 5610.8714,3385.3742 5577.5149,3000.8475 5415.365,2662.6492 5121.6422,2364.2935 l -86.1711,-86.171 v -263.146 -263.1461 h -162.1498 c -133.4262,0 -162.1498,2.7798 -162.1498,12.972 0,12.972 -245.5412,1769.7496 -254.8069,1829.0502 l -5.5594,29.6502 h 87.0976 86.171 l 102.8494,315.034 102.8493,315.0339 h -155.6639 -154.7372 l -6.486,-52.8145 c -7.4126,-62.0802 -42.6223,-131.573 -81.5382,-160.2967 -14.8252,-11.1188 -29.6503,-18.5314 -31.5034,-15.7517 -2.7797,1.8532 -25.0174,151.9576 -50.0348,331.7123 -25.0174,180.6812 -48.1817,339.1248 -50.0348,353.0233 -4.6329,22.2377 -1.8532,25.0174 24.0908,27.7971 27.7971,2.7797 30.5768,7.4126 105.629,183.461 42.6223,99.143 77.832,183.4609 77.832,187.1672 0,3.7063 -58.374,7.4126 -129.7199,7.4126 h -129.7199 v -31.5034 c 0,-37.9894 -29.6502,-77.8319 -70.4193,-94.5102 -85.2445,-36.1362 -189.0204,20.3846 -189.0204,102.8493 v 23.1643 h -166.7827 -166.7827 v -33.3566 c 0,-65.7865 -82.4648,-116.7478 -164.003,-100.9961 -49.1082,9.2657 -95.4367,58.3739 -95.4367,100.9961 v 33.3566 h -171.4156 -171.4155 v -35.2097 c 0,-39.8425 -30.5768,-75.9788 -76.9053,-93.5836 -82.4648,-31.5034 -182.5344,25.944 -182.5344,105.629 v 23.1643 h -129.7199 c -71.3459,0 -129.7199,-2.7797 -129.7199,-6.486 0,-4.6329 35.2097,-88.9508 78.7585,-188.0938 69.4928,-162.1498 79.6851,-180.6813 100.9962,-183.461 15.7517,-1.8531 24.0908,-9.2657 24.0908,-19.458 0,-25.0174 -101.9227,-681.0293 -106.5556,-684.7355 -6.486,-7.4126 -57.4473,50.9613 -72.2725,84.3179 -8.3391,17.6048 -17.6048,54.6676 -21.3111,83.3913 l -6.486,52.8145 h -155.6638 c -119.5276,0 -156.5904,-2.7797 -156.5904,-11.1188 0,-6.486 45.4019,-147.3247 100.0696,-313.1808 l 99.143,-301.1354 76.9054,-2.7797 76.9053,-2.7798 -6.486,-43.5488 c -3.7063,-24.0908 -67.6396,-443.8272 -142.6918,-933.0564 l -135.2793,-889.5077 -164.003,-2.7797 -164.003,-1.8532 v 264.9992 265.9257 l -94.5102,98.2165 c -265.9257,274.2649 -420.663,582.8128 -466.0649,925.6439 -56.5208,428.0756 66.7131,838.5463 361.3625,1201.7619 37.9894,46.3285 97.2899,112.115 133.4261,148.2513 l 65.7865,63.9334 v 280.7508 280.7509 h 258.5132 257.5866 l 5.5594,86.171 c 7.4126,113.9682 25.944,176.975 85.2445,298.3557 99.143,202.919 252.0272,351.1702 471.6244,454.9461 97.2899,46.3286 227.0097,82.4648 334.4919,94.5102 105.6291,12.0454 141.7653,12.0454 243.6881,1.8532 z M 2737.5763,5013.3585 c 16.6783,-40.7691 66.7131,-79.685 125.0871,-98.2164 44.4753,-13.8986 59.3005,-14.8252 104.7024,-5.5595 64.86,13.8986 119.5276,50.0348 143.6184,97.2899 l 17.6049,34.2831 h 100.0696 c 96.3633,0 100.0696,-0.9265 105.629,-21.3111 15.7517,-64.8599 130.6465,-126.0136 215.8909,-113.9681 73.1991,10.1922 147.3248,63.0067 164.9296,116.7478 5.5594,16.6783 13.8986,18.5314 106.5556,18.5314 92.657,0 100.9962,-1.8531 106.5556,-18.5314 10.1923,-30.5768 50.9614,-74.1256 91.7305,-95.4367 27.7971,-13.8986 54.6676,-19.458 98.2165,-20.3846 83.3913,0 140.8387,28.7237 178.8281,89.8774 25.0174,40.7691 30.5768,44.4753 63.0067,44.4753 20.3846,0 36.1363,-3.7062 36.1363,-7.4125 0,-4.6329 -20.3846,-55.5942 -45.402,-113.9682 l -46.3285,-105.629 -782.0255,-2.7797 -782.952,-1.8532 -47.2551,110.2619 c -25.944,61.1537 -47.2551,113.0416 -47.2551,115.8213 0,2.7797 18.5314,5.5594 40.7691,5.5594 36.1362,0 41.6957,-2.7797 51.8879,-27.7971 z m 1486.2191,-298.3557 c 5.5594,-25.0174 98.2165,-694.0013 98.2165,-706.0467 0,-13.8985 -58.374,2.7797 -94.5102,26.8706 -48.1817,32.4299 -82.4648,94.5102 -88.0242,162.1498 l -5.5594,55.5942 H 3922.66 3710.4753 v -37.9894 c 0,-151.0309 -138.9855,-254.8068 -258.5131,-193.6532 -69.4928,35.2097 -112.1151,105.6291 -112.1151,185.3141 v 46.3285 h -212.1846 -211.2581 l -5.5594,-52.8145 c -11.1188,-102.8493 -77.8319,-183.4609 -162.1498,-194.5798 -34.2831,-4.6328 -38.916,-2.7797 -38.916,13.8986 0,21.3111 100.9962,686.5887 106.5556,704.1935 2.7797,8.3392 151.9576,11.1189 703.267,11.1189 h 700.4873 z M 2468.8709,4158.134 c 0,-37.0628 54.6677,-134.3527 94.5102,-167.7093 101.9227,-87.0976 239.9817,-79.685 338.1982,17.6049 37.0628,37.9894 50.9614,61.1536 65.7865,107.4821 l 18.5314,59.3005 138.059,2.7798 138.059,1.8531 16.6783,-52.8145 c 37.9894,-127.8667 149.1778,-206.6252 270.5586,-194.5798 62.0802,6.486 111.1884,32.4299 158.4435,82.4648 31.5034,35.2096 76.9054,126.0135 76.9054,156.5904 0,5.5594 51.8879,7.4125 139.9121,6.486 l 139.9122,-2.7798 18.5314,-59.3005 c 32.4299,-106.5556 137.1324,-186.2406 243.688,-186.2406 115.8213,0 227.9363,96.3633 250.174,215.8909 l 6.486,34.2831 h 73.1991 72.2725 l -12.972,-38.916 c -7.4126,-22.2377 -42.6222,-130.6464 -78.7585,-240.9083 l -65.7865,-201.9923 H 3520.5284 2469.7975 l -74.1257,230.716 c -41.6956,126.9402 -75.0522,235.3489 -75.0522,240.9083 0,6.486 25.944,10.1923 74.1257,10.1923 71.3459,0 74.1256,-0.9266 74.1256,-21.3111 z m 1912.4415,-564.2814 c 8.3391,-48.1817 255.7334,-1816.0782 255.7334,-1829.9767 0,-10.1923 -67.6396,-12.0455 -378.9673,-12.0455 h -378.9673 l -4.6329,192.7267 c -2.7797,133.4262 -8.3391,206.6252 -18.5314,240.9083 -41.6957,144.545 -137.1324,274.2649 -236.2755,323.3731 -44.4753,22.2377 -64.8599,25.944 -126.9401,25.944 -62.0802,0 -82.4648,-3.7063 -126.9402,-25.944 -98.2164,-48.1816 -195.5063,-181.6078 -235.3489,-321.5199 -10.1923,-35.2097 -16.6782,-109.3353 -19.458,-242.7615 l -4.6328,-192.7267 h -373.4079 c -351.1702,0 -373.4079,0.9266 -369.7016,16.6783 3.7062,18.5314 281.6774,1840.169 281.6774,1848.5081 0,3.7063 389.1596,6.486 865.4168,6.486 h 865.4168 z M 3588.168,2441.1989 c 63.0068,-31.5034 116.7479,-92.6571 160.2967,-184.3875 44.4754,-93.5837 54.6677,-155.6639 54.6677,-349.3171 v -155.6639 h -310.4011 -310.4011 v 155.6639 c 0,193.6532 10.1922,255.7334 54.6676,349.3171 63.9334,134.3527 154.7373,208.4783 255.7335,208.4783 32.4299,0 63.0068,-7.4126 95.4367,-24.0908 z M 3247.1901,1640.642 c -60.2271,-42.6223 -97.2899,-55.5942 -167.7093,-55.5942 -54.6676,0 -116.7478,25.0174 -170.4889,69.4927 l -27.7971,23.1643 h 208.4783 208.4784 z m 838.5463,13.8985 c -14.8251,-12.0454 -48.1817,-33.3565 -73.1991,-46.3285 -85.2445,-43.5488 -195.5064,-25.0174 -278.8977,45.402 l -27.7971,23.1642 203.8455,0.9266 h 203.8455 z m -1239.7513,-84.3179 c 125.087,-85.2445 194.5798,-105.629 300.2088,-87.0976 67.6397,12.0454 113.9682,34.2831 182.5344,85.2445 66.7131,50.0348 102.8493,63.0068 168.6358,63.0068 67.6397,0 100.9962,-12.972 180.6813,-70.4194 84.3179,-59.3005 141.7653,-80.6116 227.0097,-80.6116 88.0242,-0.9266 149.1779,19.458 224.2301,74.1256 88.0242,64.86 126.9402,79.6851 207.5518,75.0522 61.1536,-2.7797 72.2725,-6.486 121.3807,-39.8425 57.4474,-39.8425 59.3005,-46.3285 38.916,-112.115 l -9.2657,-29.6503 -48.1817,18.5314 c -63.0068,25.0174 -169.5624,26.8706 -235.3489,3.7063 -26.8705,-9.2657 -75.0522,-35.2097 -106.5556,-58.3739 -88.0242,-65.7865 -126.9402,-79.6851 -207.5518,-75.0522 -65.7865,2.7797 -70.4193,4.6328 -149.1778,59.3005 -125.087,85.2445 -194.5798,105.629 -300.2089,87.0976 -67.6396,-12.0454 -113.9681,-34.2831 -182.5344,-85.2445 -66.713,-50.0348 -102.8493,-63.0068 -168.6358,-63.0068 -67.6396,0 -100.9962,12.972 -180.6812,70.4194 -87.0976,61.1536 -141.7653,80.6116 -231.6426,80.6116 -45.402,0 -89.8774,-6.486 -114.8948,-15.7517 -23.1642,-8.3391 -44.4754,-12.0454 -47.2551,-8.3391 -3.7063,4.6328 -11.1188,25.944 -16.6782,49.1082 -9.2658,37.9894 -9.2658,42.6223 10.1922,58.374 11.1189,9.2657 41.6957,26.8705 66.7131,39.8425 39.8425,19.458 57.4474,22.2377 117.6745,20.3845 70.4193,-2.7797 72.2725,-3.7062 152.8841,-59.3005 z m -74.1257,-206.6252 c 21.3112,-10.1923 62.0803,-35.2097 89.8774,-56.5208 96.3633,-73.1991 204.7721,-97.2899 311.3277,-70.4193 43.5488,11.1188 84.3179,31.5034 150.1044,76.9053 85.2445,57.4474 92.657,61.1537 153.8107,65.7865 79.685,5.5594 114.8947,-5.5594 189.0204,-60.2271 92.657,-68.5662 147.3247,-88.9507 234.4223,-89.8773 93.5836,-0.9266 148.2513,17.6048 236.2755,78.7585 85.2444,60.2271 117.6744,73.1991 179.7546,73.1991 53.7411,0 126.0136,-23.1643 126.0136,-38.916 0,-5.5594 -12.972,-31.5034 -27.7971,-59.3005 l -28.7237,-49.1083 h -66.7131 c -101.9227,0 -141.7652,-15.7517 -277.9711,-113.0416 -38.916,-26.8705 -52.8145,-31.5033 -113.0416,-34.2831 -84.3179,-4.6328 -113.9682,4.6329 -192.7267,63.0068 -86.171,62.0803 -149.1778,84.3179 -238.1286,84.3179 -87.0976,0 -151.9575,-22.2376 -223.3035,-75.9787 -75.0522,-57.4474 -114.8947,-73.1991 -187.1672,-73.1991 -71.3459,0 -103.7759,12.972 -192.7267,78.7585 -68.5662,50.0348 -127.8667,70.4193 -209.4049,70.4193 h -63.9333 l -29.6503,50.0349 c -16.6783,26.8705 -29.6503,53.741 -29.6503,60.227 0,35.2097 144.545,49.1083 210.3315,19.458 z m -13.8985,-245.5412 c 18.5314,-6.486 61.1536,-31.5034 94.5102,-55.5942 82.4648,-59.3005 133.4261,-79.68513 208.4783,-86.17103 87.0977,-7.4126 173.2687,19.4579 252.0272,76.90533 89.8773,66.7131 128.7933,80.6116 204.7721,75.9788 61.1536,-4.6329 69.4928,-8.3392 153.8107,-65.7865 176.9749,-121.38083 312.2542,-119.52763 482.7432,5.5594 54.6677,40.7691 118.601,67.6396 141.7653,60.2271 16.6783,-5.5594 -126.9402,-129.71993 -215.8909,-185.31413 -46.3286,-29.6503 -117.6745,-65.7865 -158.4436,-81.5382 -87.0976,-33.3566 -94.5102,-32.43 -187.1672,36.1362 -83.3914,61.1537 -143.6185,83.3914 -228.8629,84.3179 -92.6571,0 -149.1779,-17.6048 -227.0098,-72.2725 -115.8213,-81.5382 -113.0416,-80.6116 -194.5798,-48.1816 -123.2339,49.1082 -277.9711,151.95753 -359.5093,239.98173 -30.5769,31.5034 -22.2377,35.2097 33.3565,15.7517 z m 804.2632,-246.46773 c 18.5314,-4.6329 53.7411,-22.2377 77.8319,-37.9894 69.4928,-43.5488 51.8879,-50.0348 -136.2059,-50.0348 -92.657,0.9266 -166.7827,4.6328 -176.0484,10.1923 -14.8251,8.3391 -12.972,12.0454 20.3846,35.2096 69.4928,48.1817 141.7653,63.0068 214.0378,42.6223 z"
       id="path6"
       style="fill:#0075b5;fill-opacity:1;stroke-width:3.00000007;stroke-miterlimit:4;stroke-dasharray:none"
       inkscape:connector-curvature="0" />
    <path
       d="m 3460.3013,4668.6743 c -17.6048,-12.0454 -42.6222,-40.7691 -55.5942,-63.0068 -19.458,-36.1362 -23.1643,-55.5942 -25.944,-145.4715 l -3.7063,-104.7025 h 145.4716 146.3981 l -4.6328,100.9962 c -3.7063,84.3179 -8.3392,108.4087 -26.8706,145.4715 -41.6956,80.6117 -113.9681,108.4088 -175.1218,66.7131 z m 90.8039,-75.0522 c 25.0174,-26.8705 38.916,-71.3459 38.916,-124.1604 v -39.8426 h -69.4928 -69.4928 v 50.9614 c 0,33.3565 6.486,64.8599 18.5314,87.0976 25.944,51.888 50.0348,59.3005 81.5382,25.944 z"
       id="path8"
       style="fill:#0075b5;fill-opacity:1;stroke:#000000;stroke-width:3;stroke-miterlimit:4;stroke-dasharray:none;stroke-opacity:1"
       inkscape:connector-curvature="0" />
    <path
       d="m 3415.8259,3487.297 c -42.6222,-20.3846 -90.8039,-79.6851 -114.8947,-140.8388 -17.6048,-45.4019 -21.3111,-73.199 -24.0908,-215.8909 l -3.7063,-164.9295 h 209.4049 209.4049 v 142.6918 c 0,116.7479 -3.7062,153.8107 -18.5314,202.919 -47.2551,152.8841 -155.6638,227.0097 -257.5866,176.0484 z m 126.0136,-88.0242 c 53.7411,-56.5208 70.4194,-109.3354 74.1257,-240.9084 l 3.7062,-118.601 h -135.2793 -135.2792 v 111.1885 c 0,129.7198 18.5314,193.6532 70.4193,246.4677 43.5488,42.6223 81.5382,42.6223 122.3073,1.8532 z"
       id="path10"
       style="fill:#0075b5;fill-opacity:1;stroke-width:3;stroke-miterlimit:4;stroke-dasharray:none"
       inkscape:connector-curvature="0" />
  </g>
</svg>
